<svg xmlns="http://www.w3.org/2000/svg" width="800" height="800"><path d="M249 9.489c-23.076 5.192-42.845 24.559-45.982 45.048-.714 4.667-.975 39.013-.792 104.154l.274 97.19-48.5.357c-46.436.34-48.84.45-56.5 2.575-28.513 7.909-50.026 27.799-56.017 51.792-1.33 5.325-1.49 20.719-1.254 120.5L40.5 545.5l3.12 7.691c9.02 22.234 27.843 37.585 55.38 45.166 7.309 2.012 10.067 2.073 108.113 2.39l100.612.325 5.088 9.214c2.798 5.068 5.354 9.925 5.679 10.794.439 1.173 3.731 2.035 12.8 3.353 6.714.976 13.45 2.01 14.968 2.298 2.351.445 10.484 11.727 54.892 76.146 28.673 41.593 52.406 75.937 52.74 76.322.616.707 34.65 8.877 35.92 8.622.378-.076 1.363.138 2.188.476.825.337 4.115 1.273 7.312 2.08 4.339 1.094 5.914 1.169 6.215.294.967-2.805 15.471-68.056 15.456-69.533-.01-.901-19.283-28.188-42.83-60.638l-42.812-59 63.231-.257 63.23-.258 27.349 15.589 27.349 15.59 5.5-.615c8.469-.947 45.957-7.172 46.507-7.723.413-.412-3.119-11.959-5.147-16.826-.343-.825-.756-2.484-.917-3.687l-.293-2.188 39.175-.312 39.175-.313 6.117-2.827c10.735-4.961 17.962-14.612 20.348-27.173.833-4.389 1.058-54.331.837-186l-.302-180-2.879-7.479c-5.85-15.197-16.806-28.167-29.353-34.75-3.173-1.664-91.718-31.255-196.768-65.757-105.05-34.502-208.038-68.333-228.863-75.179C267.621 7.521 262.334 6.489 249 9.489m17.25 40.2c.962.252 2.538.252 3.5 0 .962-.251.175-.457-1.75-.457s-2.712.206-1.75.457m-19.326 8.061L244.5 60.5l2.75-2.424c1.512-1.334 2.75-2.571 2.75-2.75 0-.785-.81-.146-3.076 2.424m-43.908 33l.017 4.75 183.233 59.472c100.779 32.71 211.134 68.525 245.234 79.589l62 20.116 19 .552 19 .552-6.5-2.012c-17.957-5.556-58.824-18.63-117.5-37.587C362.171 136.919 204.21 86 203.652 86c-.359 0-.645 2.138-.636 4.75m553.856 155c-1.243 1.586-1.208 1.621.378.378 1.666-1.307 2.195-2.128 1.372-2.128-.207 0-.995.787-1.75 1.75m-22.122 9.912c.688.278 1.813.278 2.5 0 .688-.277.125-.504-1.25-.504s-1.937.227-1.25.504M468.965 465.538l6.623 34.59 20.35 11.459c11.192 6.302 20.532 11.276 20.756 11.052.224-.223-1.469-10.127-3.76-22.008l-4.168-21.601-10.317-5.534-10.318-5.535-1.518-5.23c-.835-2.877-2.513-9.281-3.729-14.231l-2.21-9-8.452-4c-4.648-2.2-8.773-4.124-9.166-4.277-.393-.152 2.266 15.29 5.909 34.315m12.044 62.79c.07 1.408 5.849 29.864 6.119 30.134.207.207 9.528 5.572 20.714 11.924l20.336 11.547-.655-4.716c-.36-2.595-1.638-9.38-2.839-15.079l-2.184-10.361-20.75-11.811c-11.413-6.495-20.746-11.733-20.741-11.638" fill="undefined" fill-rule="evenodd"/></svg>